M48
METRIC,LZ,000.000
;FILE_FORMAT=3:3
;TYPE=PLATED
;Layer: PTH_Through
;EasyEDA v6.5.51, 2025-09-27 12:56:09
;75f8b899ecfc43cc8a6d228ac1e48a86,89e1a619cbfd45d898fee9c34dac6390,10
;Gerber Generator version 0.2
;Holesize 1 = 0.400 mm
T01C0.400
;Holesize 2 = 0.501 mm
T02C0.501
;Holesize 3 = 0.600 mm
T03C0.600
;Holesize 4 = 0.800 mm
T04C0.800
;Holesize 5 = 0.813 mm
T05C0.813
;Holesize 6 = 0.915 mm
T06C0.915
;Holesize 7 = 1.016 mm
T07C1.016
;Holesize 8 = 1.501 mm
T08C1.501
%
G05
G90
T01
X008509Y086741
X013897Y092129
X045720Y092456
X051108Y087068
T02
X034544Y097432
X034544Y084432
X025781Y097305
X025781Y084305
X016533Y076454
X003533Y076454
X016533Y071755
X003533Y071755
X016533Y067056
X003533Y067056
X047003Y052380G85X047003Y051380
X047003Y055380G85X047003Y054380
X047003Y059380G85X047003Y058380
X051803Y060380G85X051803Y059380
X025400Y076200
X025400Y073660
X025400Y071120
X025400Y068580
X033020Y068580
X033020Y071120
X033020Y073660
X033020Y076200
X055776Y067437
X042776Y067437
X055776Y072136
X042776Y072136
X055776Y076835
X042776Y076835
X038354Y075438
X038481Y068707
X038608Y064516
X020447Y064389
X017907Y054737
X036068Y054864
T03
X040836Y080703
X038412Y083127
X018727Y080322
X021151Y082746
X025972Y051816
X029401Y051816
T04
X009572Y058663
X006872Y058663
X022352Y051071
X022352Y048751
X028765Y043180
X020765Y043180
T05
X046298Y082861
X040824Y088335
X013265Y082480
X018739Y087954
T06
X026439Y059690
X013439Y059690
X036703Y045720
X036703Y048260
T07
X053340Y085217
X042672Y095758
X006096Y084455
X016891Y095377
T08
X008778Y042989G85X007478Y042989
X008778Y047689G85X007478Y047689
M30
