G04 Layer: TopSilkscreenLayer*
G04 EasyEDA v6.5.51, 2025-09-27 12:56:09*
G04 75f8b899ecfc43cc8a6d228ac1e48a86,89e1a619cbfd45d898fee9c34dac6390,10*
G04 Gerber Generator version 0.2*
G04 Scale: 100 percent, Rotated: No, Reflected: No *
G04 Dimensions in millimeters *
G04 leading zeros omitted , absolute positions ,4 integer and 5 decimal *
%FSLAX45Y45*%
%MOMM*%

%ADD10C,0.1524*%
%ADD11C,0.2540*%
%ADD12C,0.2000*%
%ADD13C,0.2581*%
%ADD14C,1.0000*%
%ADD15C,0.0107*%

%LPD*%
G36*
X1317802Y9120276D02*
G01*
X1248156Y9050680D01*
X1244650Y9053677D01*
X1240637Y9056674D01*
X1233627Y9060992D01*
X1225854Y9064447D01*
X1218844Y9066377D01*
X1215339Y9066987D01*
X1211376Y9067393D01*
X1205331Y9067495D01*
X1197813Y9066479D01*
X1191158Y9064650D01*
X1186942Y9062923D01*
X1183335Y9061094D01*
X1179576Y9058859D01*
X1175867Y9056217D01*
X1171397Y9052204D01*
X1167434Y9047734D01*
X1164844Y9044178D01*
X1163066Y9041333D01*
X1161389Y9038132D01*
X1159611Y9034119D01*
X1158138Y9029801D01*
X1156512Y9022080D01*
X1156157Y9018320D01*
X1156208Y9012224D01*
X1156614Y9008313D01*
X1158189Y9001150D01*
X1160170Y8995359D01*
X1161288Y8992971D01*
X1161084Y8992768D01*
X1158748Y8993886D01*
X1154734Y8995359D01*
X1149299Y8996832D01*
X1145794Y8997442D01*
X1141831Y8997848D01*
X1135786Y8997899D01*
X1131976Y8997543D01*
X1128268Y8996934D01*
X1121613Y8995105D01*
X1117396Y8993378D01*
X1111910Y8990431D01*
X1106322Y8986621D01*
X1101852Y8982659D01*
X1097889Y8978188D01*
X1095298Y8974632D01*
X1093520Y8971788D01*
X1091844Y8968587D01*
X1090066Y8964574D01*
X1088593Y8960256D01*
X1087577Y8956243D01*
X1086967Y8952534D01*
X1086612Y8948775D01*
X1086662Y8942679D01*
X1087374Y8936990D01*
X1088186Y8933383D01*
X1089761Y8927947D01*
X1091742Y8923426D01*
X1091539Y8923223D01*
X1089152Y8924340D01*
X1085189Y8925763D01*
X1079754Y8927287D01*
X1076248Y8927896D01*
X1072286Y8928303D01*
X1066190Y8928354D01*
X1062431Y8927998D01*
X1058722Y8927388D01*
X1053744Y8926068D01*
X1049934Y8924696D01*
X1044194Y8922004D01*
X1040485Y8919768D01*
X1036726Y8917076D01*
X1033221Y8913977D01*
X1028446Y8908796D01*
X1025042Y8903919D01*
X1023112Y8900668D01*
X1020521Y8894978D01*
X1019048Y8890711D01*
X1018032Y8886698D01*
X1017422Y8882989D01*
X1017066Y8879179D01*
X1017117Y8873134D01*
X1017828Y8867444D01*
X1019606Y8860383D01*
X1022553Y8852966D01*
X1024432Y8849309D01*
X1029360Y8841892D01*
X1033830Y8836355D01*
X964234Y8766708D01*
X970026Y8760917D01*
X1045362Y8836253D01*
X1039114Y8842756D01*
X1034643Y8848445D01*
X1030732Y8854846D01*
X1029208Y8858046D01*
X1027531Y8862415D01*
X1026617Y8865565D01*
X1025601Y8870848D01*
X1025296Y8873642D01*
X1025296Y8879636D01*
X1026109Y8885072D01*
X1027430Y8890152D01*
X1029360Y8894826D01*
X1031748Y8899245D01*
X1035558Y8904579D01*
X1040841Y8909862D01*
X1044956Y8912860D01*
X1047648Y8914536D01*
X1052118Y8916771D01*
X1055268Y8917990D01*
X1060348Y8919311D01*
X1063752Y8919870D01*
X1070559Y8920226D01*
X1078331Y8919210D01*
X1084529Y8917330D01*
X1088999Y8915450D01*
X1095959Y8911386D01*
X1101496Y8907272D01*
X1106271Y8902954D01*
X1112012Y8908694D01*
X1106627Y8914790D01*
X1102461Y8920581D01*
X1100277Y8924391D01*
X1098753Y8927592D01*
X1097127Y8932011D01*
X1095756Y8936685D01*
X1094841Y8943187D01*
X1094841Y8949232D01*
X1095959Y8956141D01*
X1096975Y8959697D01*
X1098905Y8964371D01*
X1101293Y8968790D01*
X1105103Y8974124D01*
X1110386Y8979408D01*
X1114501Y8982405D01*
X1120140Y8985605D01*
X1123238Y8986926D01*
X1128369Y8988552D01*
X1135126Y8989618D01*
X1140104Y8989771D01*
X1147876Y8988755D01*
X1154074Y8986926D01*
X1160119Y8984234D01*
X1163929Y8982049D01*
X1169720Y8977934D01*
X1175816Y8972499D01*
X1181557Y8978239D01*
X1176172Y8984335D01*
X1172006Y8990126D01*
X1169822Y8993936D01*
X1167180Y8999982D01*
X1165301Y9006230D01*
X1164386Y9012732D01*
X1164386Y9018778D01*
X1164894Y9022588D01*
X1166520Y9029242D01*
X1168501Y9033916D01*
X1170838Y9038336D01*
X1174648Y9043670D01*
X1179931Y9048953D01*
X1184097Y9051950D01*
X1189685Y9055150D01*
X1192834Y9056471D01*
X1197914Y9058097D01*
X1204722Y9059214D01*
X1209649Y9059316D01*
X1213358Y9058960D01*
X1217422Y9058300D01*
X1223619Y9056471D01*
X1229664Y9053779D01*
X1236065Y9049867D01*
X1241806Y9045397D01*
X1248257Y9039148D01*
X1323594Y9114485D01*
G37*
G36*
X4664608Y9132265D02*
G01*
X4658817Y9126474D01*
X4734153Y9051137D01*
X4740656Y9057386D01*
X4746345Y9061856D01*
X4752746Y9065768D01*
X4755946Y9067292D01*
X4760315Y9068968D01*
X4763465Y9069882D01*
X4768748Y9070898D01*
X4771542Y9071203D01*
X4777536Y9071203D01*
X4782972Y9070390D01*
X4788052Y9069070D01*
X4792726Y9067139D01*
X4797145Y9064752D01*
X4802479Y9060942D01*
X4807762Y9055658D01*
X4810760Y9051544D01*
X4812436Y9048851D01*
X4814671Y9044381D01*
X4815890Y9041231D01*
X4817211Y9036151D01*
X4817770Y9032748D01*
X4818126Y9025940D01*
X4817110Y9018168D01*
X4815230Y9011970D01*
X4813350Y9007500D01*
X4809286Y9000540D01*
X4805172Y8995003D01*
X4800854Y8990228D01*
X4806594Y8984488D01*
X4812690Y8989872D01*
X4818481Y8994038D01*
X4822291Y8996222D01*
X4825492Y8997746D01*
X4829911Y8999372D01*
X4834585Y9000744D01*
X4841087Y9001658D01*
X4847132Y9001658D01*
X4854041Y9000540D01*
X4857597Y8999524D01*
X4862271Y8997594D01*
X4866690Y8995206D01*
X4872024Y8991396D01*
X4877308Y8986113D01*
X4880305Y8981998D01*
X4883505Y8976360D01*
X4884826Y8973261D01*
X4886452Y8968130D01*
X4887518Y8961374D01*
X4887671Y8956395D01*
X4886655Y8948623D01*
X4884775Y8942425D01*
X4882896Y8937955D01*
X4881067Y8934450D01*
X4876800Y8928049D01*
X4870399Y8920683D01*
X4876139Y8914942D01*
X4882235Y8920327D01*
X4888026Y8924493D01*
X4891836Y8926677D01*
X4897882Y8929319D01*
X4904130Y8931198D01*
X4910632Y8932113D01*
X4916678Y8932113D01*
X4920488Y8931605D01*
X4927142Y8929979D01*
X4931816Y8927998D01*
X4936236Y8925661D01*
X4941570Y8921851D01*
X4946853Y8916568D01*
X4949850Y8912402D01*
X4953050Y8906814D01*
X4954371Y8903665D01*
X4955997Y8898585D01*
X4957114Y8891778D01*
X4957216Y8886850D01*
X4956860Y8883142D01*
X4956200Y8879078D01*
X4954371Y8872880D01*
X4951679Y8866835D01*
X4947767Y8860434D01*
X4943297Y8854694D01*
X4937048Y8848242D01*
X5012385Y8772906D01*
X5018176Y8778697D01*
X4948580Y8848344D01*
X4951577Y8851849D01*
X4954574Y8855862D01*
X4958892Y8862872D01*
X4962347Y8870645D01*
X4964277Y8877655D01*
X4964887Y8881160D01*
X4965293Y8885123D01*
X4965395Y8891168D01*
X4964379Y8898686D01*
X4962550Y8905341D01*
X4960823Y8909558D01*
X4958994Y8913164D01*
X4956759Y8916924D01*
X4954117Y8920632D01*
X4950104Y8925102D01*
X4945634Y8929065D01*
X4942078Y8931656D01*
X4939233Y8933434D01*
X4936032Y8935110D01*
X4932019Y8936888D01*
X4927701Y8938361D01*
X4919980Y8939987D01*
X4916220Y8940342D01*
X4910124Y8940292D01*
X4906213Y8939885D01*
X4899050Y8938310D01*
X4893259Y8936329D01*
X4890871Y8935212D01*
X4890668Y8935415D01*
X4890922Y8935618D01*
X4892649Y8939936D01*
X4893818Y8943543D01*
X4895037Y8948928D01*
X4895748Y8954668D01*
X4895799Y8960713D01*
X4895443Y8964523D01*
X4894834Y8968232D01*
X4893005Y8974886D01*
X4891278Y8979103D01*
X4888331Y8984589D01*
X4884521Y8990177D01*
X4880559Y8994648D01*
X4876088Y8998610D01*
X4872532Y9001201D01*
X4869688Y9002979D01*
X4866487Y9004655D01*
X4862474Y9006433D01*
X4858156Y9007906D01*
X4854143Y9008922D01*
X4850434Y9009532D01*
X4846675Y9009888D01*
X4840579Y9009837D01*
X4834890Y9009126D01*
X4831283Y9008313D01*
X4825847Y9006738D01*
X4821326Y9004757D01*
X4821123Y9004960D01*
X4822240Y9007348D01*
X4823663Y9011310D01*
X4825187Y9016746D01*
X4825796Y9020251D01*
X4826203Y9024213D01*
X4826254Y9030309D01*
X4825898Y9034068D01*
X4825288Y9037777D01*
X4823968Y9042755D01*
X4822596Y9046565D01*
X4819904Y9052306D01*
X4817668Y9056014D01*
X4814976Y9059773D01*
X4811877Y9063278D01*
X4806696Y9068054D01*
X4801819Y9071457D01*
X4798568Y9073388D01*
X4792878Y9075978D01*
X4788611Y9077452D01*
X4784598Y9078468D01*
X4780889Y9079077D01*
X4777079Y9079433D01*
X4771034Y9079382D01*
X4765344Y9078671D01*
X4756607Y9076385D01*
X4752644Y9074810D01*
X4749139Y9073134D01*
X4741773Y9068663D01*
X4737760Y9065666D01*
X4734255Y9062669D01*
G37*
D10*
X255778Y4841542D02*
G01*
X245363Y4831128D01*
X240284Y4815634D01*
X240284Y4794806D01*
X245363Y4779312D01*
X255778Y4768898D01*
X266192Y4768898D01*
X276605Y4773978D01*
X281939Y4779312D01*
X287020Y4789726D01*
X297434Y4820968D01*
X302513Y4831128D01*
X307847Y4836462D01*
X318262Y4841542D01*
X333755Y4841542D01*
X344170Y4831128D01*
X349250Y4815634D01*
X349250Y4794806D01*
X344170Y4779312D01*
X333755Y4768898D01*
X240284Y4875832D02*
G01*
X349250Y4901994D01*
X240284Y4927902D02*
G01*
X349250Y4901994D01*
X240284Y4927902D02*
G01*
X349250Y4953810D01*
X240284Y4979718D02*
G01*
X349250Y4953810D01*
X261112Y5014008D02*
G01*
X255778Y5024422D01*
X240284Y5040170D01*
X349250Y5040170D01*
X3085071Y8750300D02*
G01*
X3194291Y8750300D01*
X3085071Y8750300D02*
G01*
X3085071Y8797036D01*
X3090151Y8812529D01*
X3095485Y8817863D01*
X3105899Y8822944D01*
X3116313Y8822944D01*
X3126727Y8817863D01*
X3131807Y8812529D01*
X3137141Y8797036D01*
X3137141Y8750300D01*
X3137141Y8786621D02*
G01*
X3194291Y8822944D01*
X3085071Y8919718D02*
G01*
X3085071Y8867647D01*
X3131807Y8862568D01*
X3126727Y8867647D01*
X3121393Y8883395D01*
X3121393Y8898889D01*
X3126727Y8914384D01*
X3137141Y8924797D01*
X3152635Y8930131D01*
X3163049Y8930131D01*
X3178543Y8924797D01*
X3188957Y8914384D01*
X3194291Y8898889D01*
X3194291Y8883395D01*
X3188957Y8867647D01*
X3183877Y8862568D01*
X3173463Y8857234D01*
X3147301Y8964421D02*
G01*
X3147301Y9057894D01*
X3105899Y9092184D02*
G01*
X3100565Y9102597D01*
X3085071Y9118092D01*
X3194291Y9118092D01*
X3085071Y9183624D02*
G01*
X3090151Y9168129D01*
X3105899Y9157715D01*
X3131807Y9152381D01*
X3147301Y9152381D01*
X3173463Y9157715D01*
X3188957Y9168129D01*
X3194291Y9183624D01*
X3194291Y9194037D01*
X3188957Y9209531D01*
X3173463Y9219945D01*
X3147301Y9225279D01*
X3131807Y9225279D01*
X3105899Y9219945D01*
X3090151Y9209531D01*
X3085071Y9194037D01*
X3085071Y9183624D01*
X3085071Y9290558D02*
G01*
X3090151Y9275063D01*
X3105899Y9264650D01*
X3131807Y9259570D01*
X3147301Y9259570D01*
X3173463Y9264650D01*
X3188957Y9275063D01*
X3194291Y9290558D01*
X3194291Y9300971D01*
X3188957Y9316720D01*
X3173463Y9326879D01*
X3147301Y9332213D01*
X3131807Y9332213D01*
X3105899Y9326879D01*
X3090151Y9316720D01*
X3085071Y9300971D01*
X3085071Y9290558D01*
X3085071Y9366504D02*
G01*
X3194291Y9366504D01*
X3085071Y9439147D02*
G01*
X3157715Y9366504D01*
X3131807Y9392412D02*
G01*
X3194291Y9439147D01*
X2196071Y8801100D02*
G01*
X2305291Y8801100D01*
X2196071Y8801100D02*
G01*
X2196071Y8847836D01*
X2201151Y8863329D01*
X2206485Y8868663D01*
X2216899Y8873744D01*
X2227313Y8873744D01*
X2237727Y8868663D01*
X2242807Y8863329D01*
X2248141Y8847836D01*
X2248141Y8801100D01*
X2248141Y8837421D02*
G01*
X2305291Y8873744D01*
X2216899Y8908034D02*
G01*
X2211565Y8918447D01*
X2196071Y8934195D01*
X2305291Y8934195D01*
X2258301Y8968486D02*
G01*
X2258301Y9061958D01*
X2216899Y9096247D02*
G01*
X2211565Y9106662D01*
X2196071Y9122155D01*
X2305291Y9122155D01*
X2196071Y9187687D02*
G01*
X2201151Y9171939D01*
X2216899Y9161779D01*
X2242807Y9156445D01*
X2258301Y9156445D01*
X2284463Y9161779D01*
X2299957Y9171939D01*
X2305291Y9187687D01*
X2305291Y9198102D01*
X2299957Y9213595D01*
X2284463Y9224010D01*
X2258301Y9229089D01*
X2242807Y9229089D01*
X2216899Y9224010D01*
X2201151Y9213595D01*
X2196071Y9198102D01*
X2196071Y9187687D01*
X2196071Y9294621D02*
G01*
X2201151Y9279128D01*
X2216899Y9268713D01*
X2242807Y9263379D01*
X2258301Y9263379D01*
X2284463Y9268713D01*
X2299957Y9279128D01*
X2305291Y9294621D01*
X2305291Y9305036D01*
X2299957Y9320529D01*
X2284463Y9330944D01*
X2258301Y9336278D01*
X2242807Y9336278D01*
X2216899Y9330944D01*
X2201151Y9320529D01*
X2196071Y9305036D01*
X2196071Y9294621D01*
X2196071Y9370568D02*
G01*
X2305291Y9370568D01*
X2196071Y9443212D02*
G01*
X2268715Y9370568D01*
X2242807Y9396476D02*
G01*
X2305291Y9443212D01*
X1676412Y6046215D02*
G01*
X1676412Y5937250D01*
X1676412Y6046215D02*
G01*
X1723148Y6046215D01*
X1738642Y6041136D01*
X1743976Y6035802D01*
X1749056Y6025387D01*
X1749056Y6014973D01*
X1743976Y6004560D01*
X1738642Y5999479D01*
X1723148Y5994400D01*
X1676412Y5994400D01*
X1712734Y5994400D02*
G01*
X1749056Y5937250D01*
X1850910Y6009894D02*
G01*
X1845830Y5994400D01*
X1835416Y5983986D01*
X1819668Y5978652D01*
X1814588Y5978652D01*
X1799094Y5983986D01*
X1788680Y5994400D01*
X1783346Y6009894D01*
X1783346Y6014973D01*
X1788680Y6030721D01*
X1799094Y6041136D01*
X1814588Y6046215D01*
X1819668Y6046215D01*
X1835416Y6041136D01*
X1845830Y6030721D01*
X1850910Y6009894D01*
X1850910Y5983986D01*
X1845830Y5957823D01*
X1835416Y5942329D01*
X1819668Y5937250D01*
X1809508Y5937250D01*
X1793760Y5942329D01*
X1788680Y5952744D01*
X1885200Y5983986D02*
G01*
X1978672Y5983986D01*
X2018296Y6020307D02*
G01*
X2018296Y6025387D01*
X2023376Y6035802D01*
X2028710Y6041136D01*
X2039124Y6046215D01*
X2059698Y6046215D01*
X2070112Y6041136D01*
X2075446Y6035802D01*
X2080526Y6025387D01*
X2080526Y6014973D01*
X2075446Y6004560D01*
X2065032Y5989065D01*
X2012962Y5937250D01*
X2085860Y5937250D01*
X2125230Y5963157D02*
G01*
X2120150Y5957823D01*
X2125230Y5952744D01*
X2130564Y5957823D01*
X2125230Y5963157D01*
X2169934Y6020307D02*
G01*
X2169934Y6025387D01*
X2175268Y6035802D01*
X2180348Y6041136D01*
X2190762Y6046215D01*
X2211590Y6046215D01*
X2222004Y6041136D01*
X2227084Y6035802D01*
X2232418Y6025387D01*
X2232418Y6014973D01*
X2227084Y6004560D01*
X2216670Y5989065D01*
X2164854Y5937250D01*
X2237498Y5937250D01*
X2271788Y6046215D02*
G01*
X2271788Y5937250D01*
X2344432Y6046215D02*
G01*
X2271788Y5973571D01*
X2297696Y5999479D02*
G01*
X2344432Y5937250D01*
X774712Y7722615D02*
G01*
X774712Y7613650D01*
X774712Y7722615D02*
G01*
X821448Y7722615D01*
X836942Y7717536D01*
X842276Y7712202D01*
X847356Y7701787D01*
X847356Y7691373D01*
X842276Y7680960D01*
X836942Y7675879D01*
X821448Y7670800D01*
X774712Y7670800D01*
X811034Y7670800D02*
G01*
X847356Y7613650D01*
X886980Y7696708D02*
G01*
X886980Y7701787D01*
X892060Y7712202D01*
X897394Y7717536D01*
X907808Y7722615D01*
X928382Y7722615D01*
X938796Y7717536D01*
X944130Y7712202D01*
X949210Y7701787D01*
X949210Y7691373D01*
X944130Y7680960D01*
X933716Y7665465D01*
X881646Y7613650D01*
X954544Y7613650D01*
X988834Y7660386D02*
G01*
X1082306Y7660386D01*
X1116596Y7701787D02*
G01*
X1127010Y7707121D01*
X1142504Y7722615D01*
X1142504Y7613650D01*
X1176794Y7722615D02*
G01*
X1176794Y7613650D01*
X1249438Y7722615D02*
G01*
X1176794Y7649971D01*
X1202702Y7675879D02*
G01*
X1249438Y7613650D01*
X685812Y7227315D02*
G01*
X685812Y7118350D01*
X685812Y7227315D02*
G01*
X732548Y7227315D01*
X748042Y7222236D01*
X753376Y7216902D01*
X758456Y7206487D01*
X758456Y7196073D01*
X753376Y7185660D01*
X748042Y7180579D01*
X732548Y7175500D01*
X685812Y7175500D01*
X722134Y7175500D02*
G01*
X758456Y7118350D01*
X803160Y7227315D02*
G01*
X860310Y7227315D01*
X829068Y7185660D01*
X844816Y7185660D01*
X855230Y7180579D01*
X860310Y7175500D01*
X865644Y7159752D01*
X865644Y7149337D01*
X860310Y7133844D01*
X849896Y7123429D01*
X834402Y7118350D01*
X818908Y7118350D01*
X803160Y7123429D01*
X798080Y7128510D01*
X792746Y7138923D01*
X899934Y7165086D02*
G01*
X993406Y7165086D01*
X1053604Y7227315D02*
G01*
X1038110Y7222236D01*
X1032776Y7211821D01*
X1032776Y7201408D01*
X1038110Y7190994D01*
X1048524Y7185660D01*
X1069098Y7180579D01*
X1084846Y7175500D01*
X1095260Y7165086D01*
X1100340Y7154671D01*
X1100340Y7138923D01*
X1095260Y7128510D01*
X1089926Y7123429D01*
X1074432Y7118350D01*
X1053604Y7118350D01*
X1038110Y7123429D01*
X1032776Y7128510D01*
X1027696Y7138923D01*
X1027696Y7154671D01*
X1032776Y7165086D01*
X1043190Y7175500D01*
X1058938Y7180579D01*
X1079512Y7185660D01*
X1089926Y7190994D01*
X1095260Y7201408D01*
X1095260Y7211821D01*
X1089926Y7222236D01*
X1074432Y7227315D01*
X1053604Y7227315D01*
X1139964Y7144258D02*
G01*
X1134630Y7138923D01*
X1139964Y7133844D01*
X1145044Y7138923D01*
X1139964Y7144258D01*
X1184668Y7201408D02*
G01*
X1184668Y7206487D01*
X1189748Y7216902D01*
X1194828Y7222236D01*
X1205242Y7227315D01*
X1226070Y7227315D01*
X1236484Y7222236D01*
X1241818Y7216902D01*
X1246898Y7206487D01*
X1246898Y7196073D01*
X1241818Y7185660D01*
X1231404Y7170165D01*
X1179334Y7118350D01*
X1251978Y7118350D01*
X1286268Y7227315D02*
G01*
X1286268Y7118350D01*
X1286268Y7227315D02*
G01*
X1327924Y7118350D01*
X1369580Y7227315D02*
G01*
X1327924Y7118350D01*
X1369580Y7227315D02*
G01*
X1369580Y7118350D01*
X723900Y6757415D02*
G01*
X723900Y6648450D01*
X723900Y6757415D02*
G01*
X770636Y6757415D01*
X786129Y6752336D01*
X791463Y6747002D01*
X796544Y6736587D01*
X796544Y6726173D01*
X791463Y6715760D01*
X786129Y6710679D01*
X770636Y6705600D01*
X723900Y6705600D01*
X760221Y6705600D02*
G01*
X796544Y6648450D01*
X882904Y6757415D02*
G01*
X830834Y6684771D01*
X908812Y6684771D01*
X882904Y6757415D02*
G01*
X882904Y6648450D01*
X943102Y6695186D02*
G01*
X1036573Y6695186D01*
X1076197Y6731508D02*
G01*
X1076197Y6736587D01*
X1081278Y6747002D01*
X1086612Y6752336D01*
X1097026Y6757415D01*
X1117600Y6757415D01*
X1128013Y6752336D01*
X1133347Y6747002D01*
X1138428Y6736587D01*
X1138428Y6726173D01*
X1133347Y6715760D01*
X1122934Y6700265D01*
X1070863Y6648450D01*
X1143762Y6648450D01*
X1183131Y6731508D02*
G01*
X1183131Y6736587D01*
X1188465Y6747002D01*
X1193545Y6752336D01*
X1203960Y6757415D01*
X1224787Y6757415D01*
X1235202Y6752336D01*
X1240281Y6747002D01*
X1245615Y6736587D01*
X1245615Y6726173D01*
X1240281Y6715760D01*
X1229868Y6700265D01*
X1178052Y6648450D01*
X1250695Y6648450D01*
X1316228Y6757415D02*
G01*
X1300479Y6752336D01*
X1290320Y6736587D01*
X1284986Y6710679D01*
X1284986Y6695186D01*
X1290320Y6669023D01*
X1300479Y6653529D01*
X1316228Y6648450D01*
X1326642Y6648450D01*
X1342136Y6653529D01*
X1352550Y6669023D01*
X1357629Y6695186D01*
X1357629Y6710679D01*
X1352550Y6736587D01*
X1342136Y6752336D01*
X1326642Y6757415D01*
X1316228Y6757415D01*
X4670043Y4532121D02*
G01*
X4659629Y4542536D01*
X4644136Y4547615D01*
X4623308Y4547615D01*
X4607813Y4542536D01*
X4597400Y4532121D01*
X4597400Y4521707D01*
X4602479Y4511294D01*
X4607813Y4505960D01*
X4618227Y4500879D01*
X4649470Y4490465D01*
X4659629Y4485386D01*
X4664963Y4480052D01*
X4670043Y4469637D01*
X4670043Y4454144D01*
X4659629Y4443729D01*
X4644136Y4438650D01*
X4623308Y4438650D01*
X4607813Y4443729D01*
X4597400Y4454144D01*
X4740909Y4547615D02*
G01*
X4740909Y4438650D01*
X4704334Y4547615D02*
G01*
X4777231Y4547615D01*
X4811522Y4547615D02*
G01*
X4811522Y4438650D01*
X4811522Y4547615D02*
G01*
X4879086Y4547615D01*
X4811522Y4495800D02*
G01*
X4852924Y4495800D01*
X4811522Y4438650D02*
G01*
X4879086Y4438650D01*
X4913375Y4547615D02*
G01*
X4913375Y4438650D01*
X4913375Y4547615D02*
G01*
X4960111Y4547615D01*
X4975606Y4542536D01*
X4980940Y4537202D01*
X4986020Y4526787D01*
X4986020Y4516373D01*
X4980940Y4505960D01*
X4975606Y4500879D01*
X4960111Y4495800D01*
X4913375Y4495800D01*
X4949697Y4495800D02*
G01*
X4986020Y4438650D01*
X5020309Y4547615D02*
G01*
X5020309Y4438650D01*
X5020309Y4547615D02*
G01*
X5087874Y4547615D01*
X5020309Y4495800D02*
G01*
X5061965Y4495800D01*
X5020309Y4438650D02*
G01*
X5087874Y4438650D01*
X5153406Y4547615D02*
G01*
X5142991Y4542536D01*
X5132577Y4532121D01*
X5127243Y4521707D01*
X5122163Y4505960D01*
X5122163Y4480052D01*
X5127243Y4464557D01*
X5132577Y4454144D01*
X5142991Y4443729D01*
X5153406Y4438650D01*
X5173979Y4438650D01*
X5184393Y4443729D01*
X5194808Y4454144D01*
X5200141Y4464557D01*
X5205222Y4480052D01*
X5205222Y4505960D01*
X5200141Y4521707D01*
X5194808Y4532121D01*
X5184393Y4542536D01*
X5173979Y4547615D01*
X5153406Y4547615D01*
X2628900Y6706615D02*
G01*
X2628900Y6597650D01*
X2628900Y6597650D02*
G01*
X2691129Y6597650D01*
X2725420Y6706615D02*
G01*
X2725420Y6597650D01*
X2725420Y6706615D02*
G01*
X2767075Y6597650D01*
X2808731Y6706615D02*
G01*
X2767075Y6597650D01*
X2808731Y6706615D02*
G01*
X2808731Y6597650D01*
X2853436Y6706615D02*
G01*
X2910586Y6706615D01*
X2879343Y6664960D01*
X2894838Y6664960D01*
X2905252Y6659879D01*
X2910586Y6654800D01*
X2915665Y6639052D01*
X2915665Y6628637D01*
X2910586Y6613144D01*
X2900172Y6602729D01*
X2884424Y6597650D01*
X2868929Y6597650D01*
X2853436Y6602729D01*
X2848102Y6607810D01*
X2843022Y6618223D01*
X3012440Y6706615D02*
G01*
X2960370Y6706615D01*
X2955290Y6659879D01*
X2960370Y6664960D01*
X2975863Y6670294D01*
X2991611Y6670294D01*
X3007106Y6664960D01*
X3017520Y6654800D01*
X3022600Y6639052D01*
X3022600Y6628637D01*
X3017520Y6613144D01*
X3007106Y6602729D01*
X2991611Y6597650D01*
X2975863Y6597650D01*
X2960370Y6602729D01*
X2955290Y6607810D01*
X2949956Y6618223D01*
X3083052Y6706615D02*
G01*
X3067304Y6701536D01*
X3062224Y6691121D01*
X3062224Y6680708D01*
X3067304Y6670294D01*
X3077718Y6664960D01*
X3098545Y6659879D01*
X3114040Y6654800D01*
X3124454Y6644386D01*
X3129788Y6633971D01*
X3129788Y6618223D01*
X3124454Y6607810D01*
X3119374Y6602729D01*
X3103879Y6597650D01*
X3083052Y6597650D01*
X3067304Y6602729D01*
X3062224Y6607810D01*
X3056890Y6618223D01*
X3056890Y6633971D01*
X3062224Y6644386D01*
X3072638Y6654800D01*
X3088131Y6659879D01*
X3108959Y6664960D01*
X3119374Y6670294D01*
X3124454Y6680708D01*
X3124454Y6691121D01*
X3119374Y6701536D01*
X3103879Y6706615D01*
X3083052Y6706615D01*
X3991858Y8580582D02*
G01*
X3995453Y8591717D01*
X3995453Y8606444D01*
X3991858Y8617221D01*
X3977131Y8631948D01*
X3966176Y8635720D01*
X3951447Y8635720D01*
X3940312Y8632129D01*
X3925585Y8624585D01*
X3907266Y8606266D01*
X3899900Y8591717D01*
X3896309Y8580582D01*
X3896309Y8565855D01*
X3900081Y8554897D01*
X3914808Y8540170D01*
X3925585Y8536579D01*
X3940312Y8536579D01*
X3951447Y8540170D01*
X4019697Y8552743D02*
G01*
X4023291Y8556335D01*
X4034426Y8559927D01*
X4041790Y8560107D01*
X4052745Y8556335D01*
X4067474Y8541608D01*
X4071244Y8530650D01*
X4071066Y8523287D01*
X4067474Y8512152D01*
X4060108Y8504788D01*
X4048973Y8501197D01*
X4030654Y8497605D01*
X3957375Y8497605D01*
X4008742Y8446236D01*
X4066037Y8455037D02*
G01*
X4132130Y8388944D01*
X4185653Y8393973D02*
G01*
X4196788Y8390379D01*
X4218881Y8390201D01*
X4141830Y8313150D01*
X4265038Y8344042D02*
G01*
X4250491Y8351405D01*
X4231993Y8347633D01*
X4210080Y8332906D01*
X4199122Y8321951D01*
X4184215Y8299858D01*
X4180624Y8281540D01*
X4187987Y8266991D01*
X4195353Y8259627D01*
X4210080Y8252084D01*
X4228398Y8255675D01*
X4250491Y8270582D01*
X4261446Y8281540D01*
X4276173Y8303450D01*
X4279945Y8321951D01*
X4272401Y8336678D01*
X4265038Y8344042D01*
X4340832Y8268248D02*
G01*
X4326105Y8275792D01*
X4307606Y8272020D01*
X4285693Y8257293D01*
X4274738Y8246336D01*
X4259831Y8224245D01*
X4256237Y8205927D01*
X4263781Y8191197D01*
X4271144Y8183834D01*
X4285693Y8176470D01*
X4304012Y8180062D01*
X4326105Y8194969D01*
X4337060Y8205927D01*
X4351789Y8227837D01*
X4355558Y8246336D01*
X4348195Y8260885D01*
X4340832Y8268248D01*
X4394354Y8214725D02*
G01*
X4317304Y8137674D01*
X4394354Y8214725D02*
G01*
X4368850Y8086128D01*
X4445901Y8163179D02*
G01*
X4368850Y8086128D01*
X4470148Y8138932D02*
G01*
X4393097Y8061883D01*
X4470148Y8138932D02*
G01*
X4517923Y8091157D01*
X4433509Y8102292D02*
G01*
X4462785Y8073019D01*
X1541317Y8119358D02*
G01*
X1530182Y8122953D01*
X1515455Y8122953D01*
X1504678Y8119358D01*
X1489951Y8104631D01*
X1486179Y8093676D01*
X1486179Y8078947D01*
X1489770Y8067812D01*
X1497314Y8053085D01*
X1515633Y8034766D01*
X1530182Y8027400D01*
X1541317Y8023809D01*
X1556044Y8023809D01*
X1567002Y8027581D01*
X1581729Y8042308D01*
X1585320Y8053085D01*
X1585320Y8067812D01*
X1581729Y8078947D01*
X1561972Y8147197D02*
G01*
X1565564Y8158335D01*
X1565564Y8180245D01*
X1642615Y8103194D01*
X1633814Y8160489D02*
G01*
X1699910Y8226585D01*
X1694881Y8280105D02*
G01*
X1698472Y8291240D01*
X1698652Y8313333D01*
X1775701Y8236282D01*
X1744809Y8359493D02*
G01*
X1737446Y8344943D01*
X1741218Y8326445D01*
X1755945Y8304532D01*
X1766902Y8293577D01*
X1788993Y8278670D01*
X1807314Y8275076D01*
X1821860Y8282442D01*
X1829224Y8289805D01*
X1836767Y8304532D01*
X1832996Y8322673D01*
X1818269Y8344943D01*
X1807314Y8355898D01*
X1785221Y8370448D01*
X1766902Y8374397D01*
X1752173Y8366856D01*
X1744809Y8359493D01*
X1820603Y8435284D02*
G01*
X1813059Y8420557D01*
X1816831Y8402058D01*
X1831558Y8380145D01*
X1842515Y8369190D01*
X1864606Y8354283D01*
X1882927Y8350691D01*
X1897654Y8358235D01*
X1905017Y8365599D01*
X1912381Y8380145D01*
X1908789Y8398466D01*
X1893882Y8420557D01*
X1882927Y8431512D01*
X1861014Y8446241D01*
X1842515Y8450013D01*
X1827966Y8442650D01*
X1820603Y8435284D01*
X1874126Y8488806D02*
G01*
X1951177Y8411756D01*
X1874126Y8488806D02*
G01*
X2002723Y8463302D01*
X1925673Y8540353D02*
G01*
X2002723Y8463302D01*
X1949919Y8564600D02*
G01*
X2026970Y8487549D01*
X1949919Y8564600D02*
G01*
X1997694Y8612375D01*
X1986559Y8527961D02*
G01*
X2015835Y8557237D01*
X635000Y6406387D02*
G01*
X645413Y6411721D01*
X660907Y6427215D01*
X660907Y6318250D01*
X726439Y6427215D02*
G01*
X710945Y6422136D01*
X700531Y6406387D01*
X695197Y6380479D01*
X695197Y6364986D01*
X700531Y6338823D01*
X710945Y6323329D01*
X726439Y6318250D01*
X736854Y6318250D01*
X752347Y6323329D01*
X762762Y6338823D01*
X768095Y6364986D01*
X768095Y6380479D01*
X762762Y6406387D01*
X752347Y6422136D01*
X736854Y6427215D01*
X726439Y6427215D01*
X833373Y6427215D02*
G01*
X817879Y6422136D01*
X807465Y6406387D01*
X802386Y6380479D01*
X802386Y6364986D01*
X807465Y6338823D01*
X817879Y6323329D01*
X833373Y6318250D01*
X843787Y6318250D01*
X859536Y6323329D01*
X869950Y6338823D01*
X875029Y6364986D01*
X875029Y6380479D01*
X869950Y6406387D01*
X859536Y6422136D01*
X843787Y6427215D01*
X833373Y6427215D01*
X909320Y6427215D02*
G01*
X909320Y6349237D01*
X914400Y6333744D01*
X924813Y6323329D01*
X940562Y6318250D01*
X950976Y6318250D01*
X966470Y6323329D01*
X976884Y6333744D01*
X981963Y6349237D01*
X981963Y6427215D01*
X1016254Y6427215D02*
G01*
X1016254Y6318250D01*
X1016254Y6427215D02*
G01*
X1083818Y6427215D01*
X1016254Y6375400D02*
G01*
X1057910Y6375400D01*
X4336041Y9035041D02*
G01*
X4258990Y8957990D01*
X4336041Y9035041D02*
G01*
X4361723Y9009357D01*
X4369267Y8994630D01*
X4369087Y8980081D01*
X4365495Y8968945D01*
X4357951Y8954218D01*
X4339633Y8935897D01*
X4325084Y8928534D01*
X4313948Y8924942D01*
X4299402Y8924762D01*
X4284672Y8932306D01*
X4258990Y8957990D01*
X4397105Y8937335D02*
G01*
X4400697Y8940927D01*
X4411654Y8944698D01*
X4419198Y8944698D01*
X4430153Y8940927D01*
X4444702Y8926380D01*
X4448474Y8915422D01*
X4448474Y8907879D01*
X4444702Y8896924D01*
X4437336Y8889560D01*
X4426381Y8885788D01*
X4408063Y8882197D01*
X4334603Y8882377D01*
X4386150Y8830830D01*
X4443445Y8839629D02*
G01*
X4509538Y8773535D01*
X4577788Y8793292D02*
G01*
X4500737Y8716241D01*
X4577788Y8793292D02*
G01*
X4610836Y8760244D01*
X4618200Y8745697D01*
X4618200Y8738153D01*
X4614428Y8727198D01*
X4607064Y8719832D01*
X4596109Y8716060D01*
X4588746Y8716241D01*
X4574197Y8723604D01*
X4541149Y8756652D02*
G01*
X4574197Y8723604D01*
X4581380Y8708877D01*
X4581560Y8701514D01*
X4577788Y8690559D01*
X4566653Y8679423D01*
X4555698Y8675651D01*
X4548334Y8675829D01*
X4533785Y8683193D01*
X4500737Y8716241D01*
X4682858Y8688222D02*
G01*
X4576353Y8640627D01*
X4682858Y8688222D02*
G01*
X4635263Y8581717D01*
X4613170Y8655177D02*
G01*
X4649810Y8618537D01*
X4762243Y8608837D02*
G01*
X4685192Y8531786D01*
X4736558Y8634521D02*
G01*
X4787927Y8583155D01*
X4848814Y8522268D02*
G01*
X4760805Y8507539D01*
X4815946Y8452401D01*
X4848814Y8522268D02*
G01*
X4771763Y8445218D01*
X4898923Y8472157D02*
G01*
X4939334Y8431745D01*
X4887788Y8424382D01*
X4898743Y8413427D01*
X4902514Y8402472D01*
X4902695Y8395108D01*
X4895151Y8380379D01*
X4887788Y8373016D01*
X4873238Y8365652D01*
X4858511Y8365652D01*
X4843785Y8373196D01*
X4832827Y8384151D01*
X4825464Y8398700D01*
X4825286Y8406063D01*
X4829055Y8417018D01*
X1036058Y8400041D02*
G01*
X1113109Y8322990D01*
X1036058Y8400041D02*
G01*
X1061742Y8425723D01*
X1076469Y8433267D01*
X1091018Y8433087D01*
X1102154Y8429495D01*
X1116881Y8421951D01*
X1135202Y8403633D01*
X1142565Y8389084D01*
X1146157Y8377948D01*
X1146337Y8363402D01*
X1138793Y8348672D01*
X1113109Y8322990D01*
X1126401Y8460927D02*
G01*
X1129992Y8472063D01*
X1130172Y8494153D01*
X1207223Y8417102D01*
X1198422Y8474397D02*
G01*
X1264516Y8540490D01*
X1244760Y8608740D02*
G01*
X1321810Y8531692D01*
X1244760Y8608740D02*
G01*
X1277807Y8641788D01*
X1292354Y8649152D01*
X1299898Y8649152D01*
X1310855Y8645380D01*
X1318219Y8638016D01*
X1321991Y8627061D01*
X1321810Y8619698D01*
X1314447Y8605149D01*
X1281399Y8572101D02*
G01*
X1314447Y8605149D01*
X1329174Y8612334D01*
X1336537Y8612512D01*
X1347495Y8608740D01*
X1358630Y8597605D01*
X1362402Y8586650D01*
X1362222Y8579286D01*
X1354858Y8564737D01*
X1321810Y8531692D01*
X1349829Y8713810D02*
G01*
X1397424Y8607305D01*
X1349829Y8713810D02*
G01*
X1456156Y8666035D01*
X1382877Y8644122D02*
G01*
X1419517Y8680762D01*
X1429214Y8793195D02*
G01*
X1506265Y8716144D01*
X1403352Y8767333D02*
G01*
X1454899Y8818879D01*
X1515785Y8879766D02*
G01*
X1530512Y8791760D01*
X1585650Y8846898D01*
X1515785Y8879766D02*
G01*
X1592834Y8802715D01*
X1565894Y8929875D02*
G01*
X1606306Y8970286D01*
X1613669Y8918740D01*
X1624624Y8929695D01*
X1635582Y8933467D01*
X1642945Y8933647D01*
X1657672Y8926103D01*
X1665036Y8918740D01*
X1672399Y8904193D01*
X1672399Y8889464D01*
X1664855Y8874737D01*
X1653900Y8863782D01*
X1639354Y8856416D01*
X1631988Y8856238D01*
X1621033Y8860010D01*
X5334000Y8789415D02*
G01*
X5334000Y8680450D01*
X5406643Y8789415D02*
G01*
X5406643Y8680450D01*
X5334000Y8737600D02*
G01*
X5406643Y8737600D01*
X5451347Y8789415D02*
G01*
X5508497Y8789415D01*
X5477509Y8747760D01*
X5493004Y8747760D01*
X5503418Y8742679D01*
X5508497Y8737600D01*
X5513831Y8721852D01*
X5513831Y8711437D01*
X5508497Y8695944D01*
X5498084Y8685529D01*
X5482590Y8680450D01*
X5467095Y8680450D01*
X5451347Y8685529D01*
X5446268Y8690610D01*
X5440934Y8701024D01*
X4267200Y9843515D02*
G01*
X4267200Y9734550D01*
X4339843Y9843515D02*
G01*
X4339843Y9734550D01*
X4267200Y9791700D02*
G01*
X4339843Y9791700D01*
X4374134Y9822687D02*
G01*
X4384547Y9828021D01*
X4400295Y9843515D01*
X4400295Y9734550D01*
X330200Y8713215D02*
G01*
X330200Y8604250D01*
X402844Y8713215D02*
G01*
X402844Y8604250D01*
X330200Y8661400D02*
G01*
X402844Y8661400D01*
X442468Y8687308D02*
G01*
X442468Y8692387D01*
X447547Y8702802D01*
X452881Y8708136D01*
X463295Y8713215D01*
X483870Y8713215D01*
X494284Y8708136D01*
X499618Y8702802D01*
X504697Y8692387D01*
X504697Y8681974D01*
X499618Y8671560D01*
X489204Y8656065D01*
X437134Y8604250D01*
X510031Y8604250D01*
X1689100Y9805415D02*
G01*
X1689100Y9696450D01*
X1761744Y9805415D02*
G01*
X1761744Y9696450D01*
X1689100Y9753600D02*
G01*
X1761744Y9753600D01*
X1848104Y9805415D02*
G01*
X1796034Y9732771D01*
X1874012Y9732771D01*
X1848104Y9805415D02*
G01*
X1848104Y9696450D01*
X787400Y9221215D02*
G01*
X787400Y9112250D01*
X787400Y9112250D02*
G01*
X849629Y9112250D01*
X883920Y9200387D02*
G01*
X894334Y9205721D01*
X910081Y9221215D01*
X910081Y9112250D01*
X5016500Y9348215D02*
G01*
X5016500Y9239250D01*
X5016500Y9239250D02*
G01*
X5078729Y9239250D01*
X5118354Y9322308D02*
G01*
X5118354Y9327387D01*
X5123434Y9337802D01*
X5128768Y9343136D01*
X5139181Y9348215D01*
X5160009Y9348215D01*
X5170170Y9343136D01*
X5175504Y9337802D01*
X5180584Y9327387D01*
X5180584Y9316974D01*
X5175504Y9306560D01*
X5165090Y9291065D01*
X5113020Y9239250D01*
X5185918Y9239250D01*
X2478338Y5486847D02*
G01*
X2473004Y5497261D01*
X2462590Y5507675D01*
X2452176Y5512755D01*
X2431348Y5512755D01*
X2421188Y5507675D01*
X2410774Y5497261D01*
X2405440Y5486847D01*
X2400360Y5471353D01*
X2400360Y5445191D01*
X2405440Y5429697D01*
X2410774Y5419283D01*
X2421188Y5408869D01*
X2431348Y5403789D01*
X2452176Y5403789D01*
X2462590Y5408869D01*
X2473004Y5419283D01*
X2478338Y5429697D01*
X2522788Y5512755D02*
G01*
X2579938Y5512755D01*
X2548950Y5471353D01*
X2564444Y5471353D01*
X2574858Y5466019D01*
X2579938Y5460939D01*
X2585272Y5445191D01*
X2585272Y5435031D01*
X2579938Y5419283D01*
X2569778Y5408869D01*
X2554030Y5403789D01*
X2538536Y5403789D01*
X2522788Y5408869D01*
X2517708Y5414203D01*
X2512628Y5424617D01*
X2619562Y5450525D02*
G01*
X2713034Y5450525D01*
X2747324Y5492181D02*
G01*
X2757738Y5497261D01*
X2773232Y5512755D01*
X2773232Y5403789D01*
X2838764Y5512755D02*
G01*
X2823270Y5507675D01*
X2812856Y5492181D01*
X2807522Y5466019D01*
X2807522Y5450525D01*
X2812856Y5424617D01*
X2823270Y5408869D01*
X2838764Y5403789D01*
X2849178Y5403789D01*
X2864672Y5408869D01*
X2875086Y5424617D01*
X2880420Y5450525D01*
X2880420Y5466019D01*
X2875086Y5492181D01*
X2864672Y5507675D01*
X2849178Y5512755D01*
X2838764Y5512755D01*
X2945698Y5512755D02*
G01*
X2930204Y5507675D01*
X2919790Y5492181D01*
X2914710Y5466019D01*
X2914710Y5450525D01*
X2919790Y5424617D01*
X2930204Y5408869D01*
X2945698Y5403789D01*
X2956112Y5403789D01*
X2971860Y5408869D01*
X2982274Y5424617D01*
X2987354Y5450525D01*
X2987354Y5466019D01*
X2982274Y5492181D01*
X2971860Y5507675D01*
X2956112Y5512755D01*
X2945698Y5512755D01*
X3021644Y5512755D02*
G01*
X3021644Y5403789D01*
X3021644Y5512755D02*
G01*
X3094288Y5403789D01*
X3094288Y5512755D02*
G01*
X3094288Y5403789D01*
X3128578Y5512755D02*
G01*
X3128578Y5403789D01*
X3128578Y5512755D02*
G01*
X3196142Y5512755D01*
X3128578Y5460939D02*
G01*
X3170234Y5460939D01*
X1714500Y5068315D02*
G01*
X1714500Y4959350D01*
X1714500Y4959350D02*
G01*
X1776729Y4959350D01*
X1811020Y5068315D02*
G01*
X1811020Y4959350D01*
X1811020Y5068315D02*
G01*
X1878584Y5068315D01*
X1811020Y5016500D02*
G01*
X1852676Y5016500D01*
X1811020Y4959350D02*
G01*
X1878584Y4959350D01*
X1912873Y5068315D02*
G01*
X1912873Y4959350D01*
X1912873Y5068315D02*
G01*
X1949450Y5068315D01*
X1964943Y5063236D01*
X1975358Y5052821D01*
X1980438Y5042407D01*
X1985772Y5026660D01*
X1985772Y5000752D01*
X1980438Y4985257D01*
X1975358Y4974844D01*
X1964943Y4964429D01*
X1949450Y4959350D01*
X1912873Y4959350D01*
X3594100Y4395215D02*
G01*
X3594100Y4286250D01*
X3594100Y4395215D02*
G01*
X3640836Y4395215D01*
X3656329Y4390136D01*
X3661663Y4384802D01*
X3666743Y4374387D01*
X3666743Y4363973D01*
X3661663Y4353560D01*
X3656329Y4348479D01*
X3640836Y4343400D01*
X3594100Y4343400D02*
G01*
X3640836Y4343400D01*
X3656329Y4338065D01*
X3661663Y4332986D01*
X3666743Y4322571D01*
X3666743Y4306823D01*
X3661663Y4296410D01*
X3656329Y4291329D01*
X3640836Y4286250D01*
X3594100Y4286250D01*
X3737609Y4395215D02*
G01*
X3737609Y4286250D01*
X3701034Y4395215D02*
G01*
X3773931Y4395215D01*
D11*
X3379724Y4562094D02*
G01*
X3461765Y4562094D01*
X3420618Y4521200D02*
G01*
X3420618Y4602987D01*
X3420618Y4775200D02*
G01*
X3420618Y4856987D01*
D10*
X2235149Y4564887D02*
G01*
X2245563Y4570221D01*
X2261057Y4585715D01*
X2261057Y4476750D01*
X2295347Y4585715D02*
G01*
X2295347Y4476750D01*
X2295347Y4585715D02*
G01*
X2368245Y4476750D01*
X2368245Y4585715D02*
G01*
X2368245Y4476750D01*
X2454351Y4585715D02*
G01*
X2402535Y4513071D01*
X2480513Y4513071D01*
X2454351Y4585715D02*
G01*
X2454351Y4476750D01*
X2514803Y4564887D02*
G01*
X2525217Y4570221D01*
X2540711Y4585715D01*
X2540711Y4476750D01*
X2626817Y4585715D02*
G01*
X2575001Y4513071D01*
X2652979Y4513071D01*
X2626817Y4585715D02*
G01*
X2626817Y4476750D01*
X2713177Y4585715D02*
G01*
X2697683Y4580636D01*
X2692349Y4570221D01*
X2692349Y4559807D01*
X2697683Y4549394D01*
X2708097Y4544060D01*
X2728671Y4538979D01*
X2744419Y4533900D01*
X2754833Y4523486D01*
X2759913Y4513071D01*
X2759913Y4497323D01*
X2754833Y4486910D01*
X2749499Y4481829D01*
X2734005Y4476750D01*
X2713177Y4476750D01*
X2697683Y4481829D01*
X2692349Y4486910D01*
X2687269Y4497323D01*
X2687269Y4513071D01*
X2692349Y4523486D01*
X2702763Y4533900D01*
X2718257Y4538979D01*
X2739085Y4544060D01*
X2749499Y4549394D01*
X2754833Y4559807D01*
X2754833Y4570221D01*
X2749499Y4580636D01*
X2734005Y4585715D01*
X2713177Y4585715D01*
X4648200Y6795515D02*
G01*
X4648200Y6686550D01*
X4648200Y6795515D02*
G01*
X4694936Y6795515D01*
X4710429Y6790436D01*
X4715763Y6785102D01*
X4720843Y6774687D01*
X4720843Y6764273D01*
X4715763Y6753860D01*
X4710429Y6748779D01*
X4694936Y6743700D01*
X4648200Y6743700D01*
X4684522Y6743700D02*
G01*
X4720843Y6686550D01*
X4781295Y6795515D02*
G01*
X4765547Y6790436D01*
X4760468Y6780021D01*
X4760468Y6769608D01*
X4765547Y6759194D01*
X4775961Y6753860D01*
X4796790Y6748779D01*
X4812284Y6743700D01*
X4822697Y6733286D01*
X4828031Y6722871D01*
X4828031Y6707123D01*
X4822697Y6696710D01*
X4817618Y6691629D01*
X4801870Y6686550D01*
X4781295Y6686550D01*
X4765547Y6691629D01*
X4760468Y6696710D01*
X4755134Y6707123D01*
X4755134Y6722871D01*
X4760468Y6733286D01*
X4770881Y6743700D01*
X4786375Y6748779D01*
X4807204Y6753860D01*
X4817618Y6759194D01*
X4822697Y6769608D01*
X4822697Y6780021D01*
X4817618Y6790436D01*
X4801870Y6795515D01*
X4781295Y6795515D01*
X4862322Y6733286D02*
G01*
X4955793Y6733286D01*
X4995163Y6769608D02*
G01*
X4995163Y6774687D01*
X5000497Y6785102D01*
X5005577Y6790436D01*
X5015991Y6795515D01*
X5036820Y6795515D01*
X5047234Y6790436D01*
X5052313Y6785102D01*
X5057647Y6774687D01*
X5057647Y6764273D01*
X5052313Y6753860D01*
X5041900Y6738365D01*
X4990084Y6686550D01*
X5062727Y6686550D01*
X5102352Y6769608D02*
G01*
X5102352Y6774687D01*
X5107431Y6785102D01*
X5112765Y6790436D01*
X5123179Y6795515D01*
X5143754Y6795515D01*
X5154168Y6790436D01*
X5159502Y6785102D01*
X5164581Y6774687D01*
X5164581Y6764273D01*
X5159502Y6753860D01*
X5149088Y6738365D01*
X5097018Y6686550D01*
X5169915Y6686550D01*
X5235193Y6795515D02*
G01*
X5219700Y6790436D01*
X5209286Y6774687D01*
X5204206Y6748779D01*
X5204206Y6733286D01*
X5209286Y6707123D01*
X5219700Y6691629D01*
X5235193Y6686550D01*
X5245608Y6686550D01*
X5261356Y6691629D01*
X5271770Y6707123D01*
X5276850Y6733286D01*
X5276850Y6748779D01*
X5271770Y6774687D01*
X5261356Y6790436D01*
X5245608Y6795515D01*
X5235193Y6795515D01*
X4610100Y7265415D02*
G01*
X4610100Y7156450D01*
X4610100Y7265415D02*
G01*
X4656836Y7265415D01*
X4672329Y7260336D01*
X4677663Y7255002D01*
X4682743Y7244587D01*
X4682743Y7234173D01*
X4677663Y7223760D01*
X4672329Y7218679D01*
X4656836Y7213600D01*
X4610100Y7213600D01*
X4646422Y7213600D02*
G01*
X4682743Y7156450D01*
X4789931Y7265415D02*
G01*
X4737861Y7156450D01*
X4717034Y7265415D02*
G01*
X4789931Y7265415D01*
X4824222Y7203186D02*
G01*
X4917693Y7203186D01*
X4977891Y7265415D02*
G01*
X4962397Y7260336D01*
X4957063Y7249921D01*
X4957063Y7239508D01*
X4962397Y7229094D01*
X4972811Y7223760D01*
X4993640Y7218679D01*
X5009134Y7213600D01*
X5019547Y7203186D01*
X5024627Y7192771D01*
X5024627Y7177023D01*
X5019547Y7166610D01*
X5014213Y7161529D01*
X4998720Y7156450D01*
X4977891Y7156450D01*
X4962397Y7161529D01*
X4957063Y7166610D01*
X4951984Y7177023D01*
X4951984Y7192771D01*
X4957063Y7203186D01*
X4967477Y7213600D01*
X4983225Y7218679D01*
X5003800Y7223760D01*
X5014213Y7229094D01*
X5019547Y7239508D01*
X5019547Y7249921D01*
X5014213Y7260336D01*
X4998720Y7265415D01*
X4977891Y7265415D01*
X5064252Y7182358D02*
G01*
X5058918Y7177023D01*
X5064252Y7171944D01*
X5069331Y7177023D01*
X5064252Y7182358D01*
X5108956Y7239508D02*
G01*
X5108956Y7244587D01*
X5114036Y7255002D01*
X5119370Y7260336D01*
X5129529Y7265415D01*
X5150358Y7265415D01*
X5160772Y7260336D01*
X5166106Y7255002D01*
X5171186Y7244587D01*
X5171186Y7234173D01*
X5166106Y7223760D01*
X5155691Y7208265D01*
X5103622Y7156450D01*
X5176520Y7156450D01*
X5210809Y7265415D02*
G01*
X5210809Y7156450D01*
X5210809Y7265415D02*
G01*
X5252211Y7156450D01*
X5293868Y7265415D02*
G01*
X5252211Y7156450D01*
X5293868Y7265415D02*
G01*
X5293868Y7156450D01*
X4699000Y7760715D02*
G01*
X4699000Y7651750D01*
X4699000Y7760715D02*
G01*
X4745736Y7760715D01*
X4761229Y7755636D01*
X4766563Y7750302D01*
X4771643Y7739887D01*
X4771643Y7729473D01*
X4766563Y7719060D01*
X4761229Y7713979D01*
X4745736Y7708900D01*
X4699000Y7708900D01*
X4735322Y7708900D02*
G01*
X4771643Y7651750D01*
X4868418Y7745221D02*
G01*
X4863084Y7755636D01*
X4847590Y7760715D01*
X4837175Y7760715D01*
X4821681Y7755636D01*
X4811268Y7739887D01*
X4805934Y7713979D01*
X4805934Y7688071D01*
X4811268Y7667244D01*
X4821681Y7656829D01*
X4837175Y7651750D01*
X4842509Y7651750D01*
X4858004Y7656829D01*
X4868418Y7667244D01*
X4873497Y7682737D01*
X4873497Y7688071D01*
X4868418Y7703565D01*
X4858004Y7713979D01*
X4842509Y7719060D01*
X4837175Y7719060D01*
X4821681Y7713979D01*
X4811268Y7703565D01*
X4805934Y7688071D01*
X4907788Y7698486D02*
G01*
X5001259Y7698486D01*
X5035550Y7739887D02*
G01*
X5045963Y7745221D01*
X5061711Y7760715D01*
X5061711Y7651750D01*
X5096002Y7760715D02*
G01*
X5096002Y7651750D01*
X5168645Y7760715D02*
G01*
X5096002Y7688071D01*
X5121909Y7713979D02*
G01*
X5168645Y7651750D01*
X3810000Y7811515D02*
G01*
X3810000Y7702550D01*
X3882643Y7811515D02*
G01*
X3882643Y7702550D01*
X3810000Y7759700D02*
G01*
X3882643Y7759700D01*
X3979418Y7811515D02*
G01*
X3927347Y7811515D01*
X3922268Y7764779D01*
X3927347Y7769860D01*
X3943095Y7775194D01*
X3958590Y7775194D01*
X3974084Y7769860D01*
X3984497Y7759700D01*
X3989831Y7743952D01*
X3989831Y7733537D01*
X3984497Y7718044D01*
X3974084Y7707629D01*
X3958590Y7702550D01*
X3943095Y7702550D01*
X3927347Y7707629D01*
X3922268Y7712710D01*
X3916934Y7723123D01*
X3822700Y7138415D02*
G01*
X3822700Y7029450D01*
X3895343Y7138415D02*
G01*
X3895343Y7029450D01*
X3822700Y7086600D02*
G01*
X3895343Y7086600D01*
X3992118Y7122921D02*
G01*
X3986784Y7133336D01*
X3971290Y7138415D01*
X3960875Y7138415D01*
X3945381Y7133336D01*
X3934968Y7117587D01*
X3929634Y7091679D01*
X3929634Y7065771D01*
X3934968Y7044944D01*
X3945381Y7034529D01*
X3960875Y7029450D01*
X3966209Y7029450D01*
X3981704Y7034529D01*
X3992118Y7044944D01*
X3997197Y7060437D01*
X3997197Y7065771D01*
X3992118Y7081265D01*
X3981704Y7091679D01*
X3966209Y7096760D01*
X3960875Y7096760D01*
X3945381Y7091679D01*
X3934968Y7081265D01*
X3929634Y7065771D01*
X4114800Y6490715D02*
G01*
X4114800Y6381750D01*
X4187443Y6490715D02*
G01*
X4187443Y6381750D01*
X4114800Y6438900D02*
G01*
X4187443Y6438900D01*
X4294631Y6490715D02*
G01*
X4242561Y6381750D01*
X4221734Y6490715D02*
G01*
X4294631Y6490715D01*
X1676400Y6478015D02*
G01*
X1676400Y6369050D01*
X1749044Y6478015D02*
G01*
X1749044Y6369050D01*
X1676400Y6426200D02*
G01*
X1749044Y6426200D01*
X1809495Y6478015D02*
G01*
X1793747Y6472936D01*
X1788668Y6462521D01*
X1788668Y6452107D01*
X1793747Y6441694D01*
X1804162Y6436360D01*
X1824989Y6431279D01*
X1840484Y6426200D01*
X1850897Y6415786D01*
X1856231Y6405371D01*
X1856231Y6389623D01*
X1850897Y6379210D01*
X1845818Y6374129D01*
X1830070Y6369050D01*
X1809495Y6369050D01*
X1793747Y6374129D01*
X1788668Y6379210D01*
X1783334Y6389623D01*
X1783334Y6405371D01*
X1788668Y6415786D01*
X1799081Y6426200D01*
X1814576Y6431279D01*
X1835404Y6436360D01*
X1845818Y6441694D01*
X1850897Y6452107D01*
X1850897Y6462521D01*
X1845818Y6472936D01*
X1830070Y6478015D01*
X1809495Y6478015D01*
X1447800Y5500115D02*
G01*
X1447800Y5391150D01*
X1520444Y5500115D02*
G01*
X1520444Y5391150D01*
X1447800Y5448300D02*
G01*
X1520444Y5448300D01*
X1622297Y5463794D02*
G01*
X1617218Y5448300D01*
X1606804Y5437886D01*
X1591310Y5432552D01*
X1585976Y5432552D01*
X1570481Y5437886D01*
X1560068Y5448300D01*
X1554734Y5463794D01*
X1554734Y5468873D01*
X1560068Y5484621D01*
X1570481Y5495036D01*
X1585976Y5500115D01*
X1591310Y5500115D01*
X1606804Y5495036D01*
X1617218Y5484621D01*
X1622297Y5463794D01*
X1622297Y5437886D01*
X1617218Y5411723D01*
X1606804Y5396229D01*
X1591310Y5391150D01*
X1580895Y5391150D01*
X1565147Y5396229D01*
X1560068Y5406644D01*
X3797300Y5538215D02*
G01*
X3797300Y5429250D01*
X3869943Y5538215D02*
G01*
X3869943Y5429250D01*
X3797300Y5486400D02*
G01*
X3869943Y5486400D01*
X3904234Y5517387D02*
G01*
X3914647Y5522721D01*
X3930395Y5538215D01*
X3930395Y5429250D01*
X3995674Y5538215D02*
G01*
X3980179Y5533136D01*
X3969765Y5517387D01*
X3964686Y5491479D01*
X3964686Y5475986D01*
X3969765Y5449823D01*
X3980179Y5434329D01*
X3995674Y5429250D01*
X4006088Y5429250D01*
X4021836Y5434329D01*
X4032250Y5449823D01*
X4037329Y5475986D01*
X4037329Y5491479D01*
X4032250Y5517387D01*
X4021836Y5533136D01*
X4006088Y5538215D01*
X3995674Y5538215D01*
G36*
X1092200Y6041593D02*
G01*
X1092200Y5691581D01*
X1142187Y5791606D01*
X1142187Y5966612D01*
G37*
G36*
X2221687Y5325618D02*
G01*
X2222703Y5202580D01*
X2252726Y5203596D01*
X2252726Y5325618D01*
G37*
G36*
X2175713Y5280609D02*
G01*
X2175713Y5249621D01*
X2298700Y5250586D01*
X2297684Y5280609D01*
G37*
G36*
X2225700Y4784598D02*
G01*
X2226716Y4661611D01*
X2256688Y4662576D01*
X2256688Y4784598D01*
G37*
D12*
X419100Y4108498D02*
G01*
X419100Y5429298D01*
X1206500Y5429298D01*
X1206500Y4108498D01*
X419100Y4108498D01*
D11*
X3454400Y9550387D02*
G01*
X3454400Y9626587D01*
X3454400Y8635987D02*
G01*
X3454400Y8559787D01*
X3289401Y8643200D02*
G01*
X3289401Y9543199D01*
X3619398Y9543199D01*
X3619398Y8643200D01*
X3289401Y8643200D01*
X2578100Y9537687D02*
G01*
X2578100Y9613887D01*
X2578100Y8623287D02*
G01*
X2578100Y8547087D01*
X2413101Y8630500D02*
G01*
X2413101Y9530499D01*
X2743098Y9530499D01*
X2743098Y8630500D01*
X2413101Y8630500D01*
X2451087Y5969000D02*
G01*
X2527287Y5969000D01*
X1536687Y5969000D02*
G01*
X1460487Y5969000D01*
X1543900Y6133998D02*
G01*
X2443899Y6133998D01*
X2443899Y5804001D01*
X1543900Y5804001D01*
X1543900Y6133998D01*
X1460487Y7645400D02*
G01*
X1536687Y7645400D01*
X546087Y7645400D02*
G01*
X469887Y7645400D01*
X553300Y7810398D02*
G01*
X1453299Y7810398D01*
X1453299Y7480401D01*
X553300Y7480401D01*
X553300Y7810398D01*
X1460487Y7175500D02*
G01*
X1536687Y7175500D01*
X546087Y7175500D02*
G01*
X469887Y7175500D01*
X553300Y7340498D02*
G01*
X1453299Y7340498D01*
X1453299Y7010501D01*
X553300Y7010501D01*
X553300Y7340498D01*
X1460487Y6705600D02*
G01*
X1536687Y6705600D01*
X546087Y6705600D02*
G01*
X469887Y6705600D01*
X553300Y6870598D02*
G01*
X1453299Y6870598D01*
X1453299Y6540601D01*
X553300Y6540601D01*
X553300Y6870598D01*
X4635299Y4877158D02*
G01*
X5245300Y4877158D01*
X5158173Y6107501D02*
G01*
X4635500Y6107501D01*
X5245300Y6107501D02*
G01*
X5202425Y6107501D01*
X5245300Y6071171D02*
G01*
X5245300Y6107501D01*
X5245300Y4668001D02*
G01*
X5245300Y5904831D01*
X4635299Y5971169D02*
G01*
X4635299Y6094801D01*
X4635299Y5571169D02*
G01*
X4635299Y5804829D01*
X4635299Y5271170D02*
G01*
X4635299Y5404830D01*
X4635299Y4668001D02*
G01*
X4635299Y5104831D01*
X4635299Y4668001D02*
G01*
X5245300Y4668001D01*
X3048000Y7708900D02*
G01*
X3238500Y7708900D01*
X3238500Y6769100D01*
X2603500Y6769100D01*
X2603500Y7708900D01*
X2794000Y7708900D01*
X3710952Y8353145D02*
G01*
X3791999Y8434189D01*
X4133024Y7931073D02*
G01*
X4214070Y8012117D01*
X3890558Y8442947D02*
G01*
X4213847Y8119658D01*
X4034241Y7922092D02*
G01*
X3710952Y8245381D01*
X3957246Y8195325D02*
G01*
X3849481Y8303089D01*
X4092613Y8061286D02*
G01*
X3984851Y8169048D01*
X3921988Y8160070D02*
G01*
X3993829Y8231911D01*
X3948930Y8133128D02*
G01*
X4020771Y8204969D01*
X2155545Y8404847D02*
G01*
X2236589Y8323800D01*
X1733473Y7982775D02*
G01*
X1814517Y7901729D01*
X2245347Y8225241D02*
G01*
X1922058Y7901952D01*
X1724492Y8081558D02*
G01*
X2047781Y8404847D01*
X1997725Y8158553D02*
G01*
X2105489Y8266318D01*
X1863686Y8023186D02*
G01*
X1971448Y8130948D01*
X1962470Y8193811D02*
G01*
X2034311Y8121970D01*
X1935528Y8166869D02*
G01*
X2007369Y8095028D01*
X542203Y5891603D02*
G01*
X542203Y5841601D01*
X517197Y5866597D02*
G01*
X567197Y5866597D01*
D13*
X4319460Y8742278D02*
G01*
X4173621Y8596439D01*
X4191939Y8578118D02*
G01*
X4337781Y8723960D01*
X4082381Y8833518D02*
G01*
X4191939Y8723960D01*
X4520260Y8395639D02*
G01*
X4629818Y8286081D01*
X4447339Y8322721D02*
G01*
X4119021Y8651039D01*
X4119021Y8651039D02*
G01*
X4264860Y8796878D01*
X4264860Y8796878D02*
G01*
X4593178Y8468560D01*
X4593178Y8468560D02*
G01*
X4447339Y8322721D01*
X1782678Y8558339D02*
G01*
X1636839Y8704178D01*
X1618518Y8685860D02*
G01*
X1764360Y8540018D01*
X1873918Y8795418D02*
G01*
X1764360Y8685860D01*
X1436039Y8357539D02*
G01*
X1326481Y8247981D01*
X1363121Y8430460D02*
G01*
X1691439Y8758778D01*
X1691439Y8758778D02*
G01*
X1837278Y8612939D01*
X1837278Y8612939D02*
G01*
X1508960Y8284621D01*
X1508960Y8284621D02*
G01*
X1363121Y8430460D01*
X5334000Y8624824D02*
G01*
X5334000Y8418576D01*
X5230875Y8521700D02*
G01*
X5437124Y8521700D01*
X4267200Y9678924D02*
G01*
X4267200Y9472676D01*
X4164075Y9575800D02*
G01*
X4370324Y9575800D01*
X609600Y8548624D02*
G01*
X609600Y8342376D01*
X506476Y8445500D02*
G01*
X712723Y8445500D01*
X1689100Y9640824D02*
G01*
X1689100Y9434576D01*
X1585976Y9537700D02*
G01*
X1792223Y9537700D01*
D11*
X716196Y8808803D02*
G01*
X1255011Y9347619D01*
X1524419Y9078211D01*
X985603Y8539396D01*
X716196Y8808803D01*
X4706703Y9380303D02*
G01*
X5245519Y8841488D01*
X4976111Y8572080D01*
X4437296Y9110896D01*
X4706703Y9380303D01*
X3060700Y5245100D02*
G01*
X3060700Y5130485D01*
X2463800Y5245100D02*
G01*
X2463800Y5130485D01*
X2997200Y5054600D02*
G01*
X2540000Y5054600D01*
X2527300Y5321300D02*
G01*
X2984500Y5321300D01*
X2774950Y5182539D02*
G01*
X2927350Y5182539D01*
X2584450Y5181600D02*
G01*
X2736850Y5181600D01*
X2774950Y5232400D02*
G01*
X2774950Y5130800D01*
X2736850Y5232400D02*
G01*
X2736850Y5130800D01*
X1685201Y5151097D02*
G01*
X2086198Y5151097D01*
X2086198Y4831097D01*
X1679201Y4831097D01*
X3505200Y4470400D02*
G01*
X3505200Y4927600D01*
X3835400Y4927600D01*
X3835400Y4470400D01*
X3505200Y4470400D01*
X2621000Y4419600D02*
G01*
X2621000Y4216400D01*
D12*
X2278100Y4432300D02*
G01*
X2678099Y4432300D01*
X2678099Y4212310D01*
X2278100Y4212310D01*
X2278100Y4432300D01*
D11*
X5384787Y6743700D02*
G01*
X5460987Y6743700D01*
X4470387Y6743700D02*
G01*
X4394187Y6743700D01*
X4477600Y6908698D02*
G01*
X5377599Y6908698D01*
X5377599Y6578701D01*
X4477600Y6578701D01*
X4477600Y6908698D01*
X5384787Y7213600D02*
G01*
X5460987Y7213600D01*
X4470387Y7213600D02*
G01*
X4394187Y7213600D01*
X4477600Y7378598D02*
G01*
X5377599Y7378598D01*
X5377599Y7048601D01*
X4477600Y7048601D01*
X4477600Y7378598D01*
X5384787Y7683500D02*
G01*
X5460987Y7683500D01*
X4470387Y7683500D02*
G01*
X4394187Y7683500D01*
X4477600Y7848498D02*
G01*
X5377599Y7848498D01*
X5377599Y7518501D01*
X4477600Y7518501D01*
X4477600Y7848498D01*
G75*
G01*
X2794000Y7708900D02*
G03*
X3048000Y7708900I127000J0D01*
G75*
G01*
X3710953Y8353146D02*
G03*
X3719297Y8235765I71842J-53881D01*
G75*
G01*
X4025262Y7931074D02*
G03*
X4142643Y7939415I53882J71841D01*
G75*
G01*
X4213847Y8011894D02*
G03*
X4205503Y8129275I-71842J53880D01*
G75*
G01*
X3899538Y8433966D02*
G03*
X3782157Y8425625I-53882J-71841D01*
G75*
G01*
X2155546Y8404847D02*
G03*
X2038165Y8396503I-53881J-71842D01*
G75*
G01*
X1733474Y8090538D02*
G03*
X1741815Y7973157I71841J-53882D01*
G75*
G01*
X1814294Y7901953D02*
G03*
X1931675Y7910297I53880J71842D01*
G75*
G01*
X2236366Y8216262D02*
G03*
X2228024Y8333643I-71841J53882D01*
G75*
G01*
X3060700Y5245100D02*
G03*
X2971800Y5322199I-88899J-12703D01*
G75*
G01*
X2540000Y5321297D02*
G03*
X2462898Y5232400I12700J-88899D01*
G75*
G01*
X2463800Y5130800D02*
G03*
X2552700Y5053701I88899J12703D01*
G75*
G01*
X2984500Y5054600D02*
G03*
X3061602Y5143500I-12700J88899D01*
G75*
G01*
X1685201Y5151097D02*
G03*
X1679202Y4831098I23151J-160490D01*
D14*
G75*
G01
X2743200Y7543800D02*
G03X2743200Y7543800I-25400J0D01*
D11*
G75*
G01
X1152195Y5866298D02*
G03X1152195Y5866298I-329997J0D01*
D13*
G75*
G01
X5411470Y8521700D02*
G03X5411470Y8521700I-77470J0D01*
G75*
G01
X4344670Y9575800D02*
G03X4344670Y9575800I-77470J0D01*
G75*
G01
X687070Y8445500D02*
G03X687070Y8445500I-77470J0D01*
G75*
G01
X1766570Y9537700D02*
G03X1766570Y9537700I-77470J0D01*
M02*
