G04 Layer: BottomSolderMaskLayer*
G04 EasyEDA v6.5.51, 2025-09-27 12:56:09*
G04 75f8b899ecfc43cc8a6d228ac1e48a86,89e1a619cbfd45d898fee9c34dac6390,10*
G04 Gerber Generator version 0.2*
G04 Scale: 100 percent, Rotated: No, Reflected: No *
G04 Dimensions in millimeters *
G04 leading zeros omitted , absolute positions ,4 integer and 5 decimal *
%FSLAX45Y45*%
%MOMM*%

%ADD10O,4.101592X2.701595*%
%ADD11C,1.6256*%
%ADD12O,1.100023X2.100021*%
%ADD13C,1.6016*%
%ADD14C,1.7032*%
%ADD15C,2.1016*%
%ADD16C,2.1336*%
%ADD17C,0.0116*%
%ADD18C,1.1176*%
%ADD19C,1.3016*%
%ADD20O,2.64X1.624*%
%ADD21C,1.5000*%
%ADD22C,2.3876*%

%LPD*%
D10*
G01*
X812800Y4298896D03*
G01*
X812800Y4768898D03*
D11*
G01*
X3454400Y9743198D03*
G01*
X3454400Y8443201D03*
G01*
X2578100Y9730498D03*
G01*
X2578100Y8430501D03*
G01*
X2643898Y5969000D03*
G01*
X1343901Y5969000D03*
G01*
X1653298Y7645400D03*
G01*
X353301Y7645400D03*
G01*
X1653298Y7175500D03*
G01*
X353301Y7175500D03*
G01*
X1653298Y6705600D03*
G01*
X353301Y6705600D03*
D12*
G01*
X4700295Y5188000D03*
G01*
X4700295Y5488000D03*
G01*
X4700295Y5887999D03*
G01*
X5180304Y5987999D03*
D11*
G01*
X2540000Y7620000D03*
G01*
X2540000Y7366000D03*
G01*
X2540000Y7112000D03*
G01*
X2540000Y6858000D03*
G01*
X3302000Y6858000D03*
G01*
X3302000Y7112000D03*
G01*
X3302000Y7366000D03*
G01*
X3302000Y7620000D03*
D13*
G01*
X4083634Y8070265D03*
D14*
G01*
X3841165Y8312734D03*
D13*
G01*
X1872665Y8032165D03*
D14*
G01*
X2115134Y8274634D03*
D15*
G01*
X957198Y5866297D03*
G01*
X687196Y5866297D03*
D16*
G01*
X4629818Y8286081D03*
G01*
X4082381Y8833518D03*
G01*
X1326481Y8247981D03*
G01*
X1873918Y8795418D03*
D18*
G01*
X5334000Y8521700D03*
G01*
X4267200Y9575800D03*
G01*
X609600Y8445500D03*
G01*
X1689100Y9537700D03*
D11*
G01*
X850900Y8674100D03*
G01*
X1389715Y9212915D03*
G01*
X4572000Y9245600D03*
G01*
X5110815Y8706784D03*
D13*
G01*
X2597150Y5181600D03*
D14*
G01*
X2940050Y5181600D03*
D19*
G01*
X2235205Y5107099D03*
G01*
X2235205Y4875095D03*
D20*
G01*
X3670300Y4572000D03*
G01*
X3670300Y4826000D03*
D21*
G01*
X2876499Y4318000D03*
G01*
X2076500Y4318000D03*
D11*
G01*
X5577598Y6743700D03*
G01*
X4277601Y6743700D03*
G01*
X5577598Y7213600D03*
G01*
X4277601Y7213600D03*
G01*
X5577598Y7683500D03*
G01*
X4277601Y7683500D03*
D22*
G01*
X3835400Y7543800D03*
G01*
X3848100Y6870700D03*
G01*
X3860800Y6451600D03*
G01*
X2044700Y6438900D03*
G01*
X1790700Y5473700D03*
G01*
X3606800Y5486400D03*
M02*
