G04 Layer: TopLayer*
G04 EasyEDA v6.5.51, 2025-09-27 12:56:09*
G04 75f8b899ecfc43cc8a6d228ac1e48a86,89e1a619cbfd45d898fee9c34dac6390,10*
G04 Gerber Generator version 0.2*
G04 Scale: 100 percent, Rotated: No, Reflected: No *
G04 Dimensions in millimeters *
G04 leading zeros omitted , absolute positions ,4 integer and 5 decimal *
%FSLAX45Y45*%
%MOMM*%

%ADD10C,0.2540*%
%ADD11O,3.999992X2.599995*%
%ADD12C,1.5240*%
%ADD13O,0.999998X1.999996*%
%ADD14C,1.5000*%
%ADD15C,2.0000*%
%ADD16C,2.0320*%
%ADD17C,0.0151*%
%ADD18C,1.0160*%
%ADD19C,1.2000*%
%ADD20O,2.54X1.524*%
%ADD21C,1.4000*%
%ADD22C,2.2860*%

%LPD*%
D10*
X4267200Y9575800D02*
G01*
X5791200Y9575800D01*
X5791200Y6604000D01*
X5486400Y6299200D01*
X5180329Y6297929D01*
X5180329Y5988050D01*
X5180329Y5988050D02*
G01*
X5588000Y5988050D01*
X5588000Y4292600D01*
X4051300Y4292600D01*
X4051300Y4800600D01*
X4025900Y4826000D01*
X3670300Y4826000D01*
X2876499Y4318000D02*
G01*
X3130499Y4572000D01*
X3670300Y4572000D01*
X3302000Y6858000D02*
G01*
X3302000Y6718300D01*
X3060700Y6477000D01*
X2882900Y6477000D01*
X2667000Y6261100D01*
X2667000Y5992088D01*
X2643911Y5969000D01*
X3848100Y6870700D02*
G01*
X3708400Y6870700D01*
X3505200Y6667500D01*
X3505200Y5930900D01*
X3670300Y5930900D01*
X3670300Y5549900D01*
X3606800Y5486400D01*
X4700295Y5488000D02*
G01*
X4646599Y5488000D01*
X4445000Y6121400D01*
X4191000Y6121400D01*
X3860800Y6451600D01*
X812800Y4768900D02*
G01*
X317500Y5264200D01*
X317500Y5511800D01*
X469900Y5664200D01*
X687194Y5866295D01*
X957326Y5866384D02*
G01*
X957326Y5494273D01*
X1549400Y4711700D01*
X2059177Y4699000D01*
X2235200Y4875021D01*
X3670300Y4826000D02*
G01*
X3098800Y4826000D01*
X2908300Y4826000D01*
X2730500Y4813300D01*
X2527300Y4813300D01*
X2597150Y5181600D01*
X2235200Y4875019D02*
G01*
X2290569Y4875019D01*
X2597150Y5181600D01*
X4700295Y5887999D02*
G01*
X4700295Y6413500D01*
X5247398Y6413500D01*
X5577598Y6743700D01*
X3302000Y7112000D02*
G01*
X3225800Y7112000D01*
X3022600Y7315200D01*
X3022600Y7899400D01*
X3810000Y7924800D01*
X4277619Y7683500D01*
X2540000Y6858000D02*
G01*
X2527300Y6858000D01*
X2349500Y6680200D01*
X2349500Y5429250D01*
X2597150Y5181600D01*
X4277606Y7213600D02*
G01*
X4277606Y6743700D01*
X812800Y4298899D02*
G01*
X2070105Y4298899D01*
X2082800Y4311594D01*
X2540000Y7112000D02*
G01*
X3048000Y7112000D01*
X3302000Y6858000D01*
X3302000Y7366000D02*
G01*
X4125219Y7366000D01*
X4277619Y7213600D01*
X3302000Y7620000D02*
G01*
X3759200Y7620000D01*
X3835400Y7543800D01*
X2235200Y5107099D02*
G01*
X2235200Y7010405D01*
X2362200Y7137400D01*
X2514600Y7137400D01*
X2540000Y7112000D01*
X2643911Y5969000D02*
G01*
X2643911Y5477738D01*
X2940050Y5181600D01*
X1343913Y5969000D02*
G01*
X1343913Y5626100D01*
X1638300Y5626100D01*
X1790700Y5473700D01*
X687070Y5866384D02*
G01*
X280415Y5866384D01*
X152400Y5994400D01*
X152400Y6083300D01*
X330200Y6261100D01*
X1346200Y6261100D01*
X1346200Y5971286D01*
X1343913Y5969000D01*
X4277606Y7683500D02*
G01*
X4277606Y7454900D01*
X5537200Y7454900D01*
X5537200Y7254001D01*
X5577593Y7213600D01*
X4083558Y8070342D02*
G01*
X4241800Y7912100D01*
X5461000Y7912100D01*
X5461000Y7924800D01*
X5511800Y7924800D01*
X5511800Y7749288D01*
X5577580Y7683500D01*
X5110820Y8706787D02*
G01*
X5148920Y8706787D01*
X5334000Y8521700D01*
X4629820Y8286079D02*
G01*
X4945979Y8286079D01*
X5143500Y8483600D01*
X5143500Y8674100D01*
X5110820Y8706787D01*
X3841168Y8312731D02*
G01*
X3841168Y8592299D01*
X4082379Y8833520D01*
X3454400Y8443198D02*
G01*
X3710693Y8443198D01*
X3841168Y8312731D01*
X1653301Y6705600D02*
G01*
X1778000Y6705600D01*
X2044700Y6438900D01*
X1653301Y7175500D02*
G01*
X1790700Y7175500D01*
X2235200Y7620000D01*
X2540000Y7620000D01*
X1653301Y7645400D02*
G01*
X1905000Y7645400D01*
X2235200Y7975600D01*
X2844800Y7975600D01*
X2844800Y7340600D01*
X2565400Y7340600D01*
X2540000Y7366000D01*
X353298Y7645400D02*
G01*
X353298Y7681198D01*
X558800Y7886700D01*
X1727200Y7886700D01*
X1872668Y8032168D01*
X353298Y6705600D02*
G01*
X353298Y6754098D01*
X508000Y6908800D01*
X1562100Y6908800D01*
X1562100Y7084298D01*
X1653301Y7175500D01*
X353298Y7175500D02*
G01*
X353298Y7262098D01*
X482600Y7391400D01*
X1574800Y7391400D01*
X1574800Y7566898D01*
X1653301Y7645400D01*
X2115058Y8274558D02*
G01*
X2422141Y8274558D01*
X2578100Y8430511D01*
X1874012Y8795512D02*
G01*
X1948693Y8795512D01*
X2222500Y8521700D01*
X2222500Y8382000D01*
X2115058Y8274558D01*
X850900Y8674100D02*
G01*
X850900Y8394700D01*
X1079500Y8166100D01*
X1244600Y8166100D01*
X1326479Y8247979D01*
X1689100Y9537700D02*
G01*
X1689100Y9512300D01*
X1546646Y9369846D01*
X1389712Y9212912D01*
X4267200Y9575800D02*
G01*
X4267200Y9563100D01*
X4572000Y9258300D01*
X4572000Y9245600D01*
X1689100Y9537700D02*
G01*
X1727200Y9537700D01*
X1968500Y9779000D01*
X4000500Y9779000D01*
X4064000Y9779000D01*
X4267200Y9575800D01*
X609600Y8445500D02*
G01*
X622300Y8445500D01*
X850900Y8674100D01*
D11*
G01*
X812800Y4298896D03*
G01*
X812800Y4768898D03*
D12*
G01*
X3454400Y9743198D03*
G01*
X3454400Y8443201D03*
G01*
X2578100Y9730498D03*
G01*
X2578100Y8430501D03*
G01*
X2643898Y5969000D03*
G01*
X1343901Y5969000D03*
G01*
X1653298Y7645400D03*
G01*
X353301Y7645400D03*
G01*
X1653298Y7175500D03*
G01*
X353301Y7175500D03*
G01*
X1653298Y6705600D03*
G01*
X353301Y6705600D03*
D13*
G01*
X4700295Y5188000D03*
G01*
X4700295Y5488000D03*
G01*
X4700295Y5887999D03*
G01*
X5180304Y5987999D03*
D12*
G01*
X2540000Y7620000D03*
G01*
X2540000Y7366000D03*
G01*
X2540000Y7112000D03*
G01*
X2540000Y6858000D03*
G01*
X3302000Y6858000D03*
G01*
X3302000Y7112000D03*
G01*
X3302000Y7366000D03*
G01*
X3302000Y7620000D03*
D14*
G01*
X4083634Y8070265D03*
G01*
X3841165Y8312734D03*
G01*
X1872665Y8032165D03*
G01*
X2115134Y8274634D03*
D15*
G01*
X957198Y5866297D03*
G01*
X687196Y5866297D03*
D16*
G01*
X4629818Y8286081D03*
G01*
X4082381Y8833518D03*
G01*
X1326481Y8247981D03*
G01*
X1873918Y8795418D03*
D18*
G01*
X5334000Y8521700D03*
G01*
X4267200Y9575800D03*
G01*
X609600Y8445500D03*
G01*
X1689100Y9537700D03*
D12*
G01*
X850900Y8674100D03*
G01*
X1389715Y9212915D03*
G01*
X4572000Y9245600D03*
G01*
X5110815Y8706784D03*
D14*
G01*
X2597150Y5181600D03*
G01*
X2940050Y5181600D03*
D19*
G01*
X2235205Y5107099D03*
G01*
X2235205Y4875095D03*
D20*
G01*
X3670300Y4572000D03*
G01*
X3670300Y4826000D03*
D21*
G01*
X2876499Y4318000D03*
G01*
X2076500Y4318000D03*
D12*
G01*
X5577598Y6743700D03*
G01*
X4277601Y6743700D03*
G01*
X5577598Y7213600D03*
G01*
X4277601Y7213600D03*
G01*
X5577598Y7683500D03*
G01*
X4277601Y7683500D03*
D22*
G01*
X3835400Y7543800D03*
G01*
X3848100Y6870700D03*
G01*
X3860800Y6451600D03*
G01*
X2044700Y6438900D03*
G01*
X1790700Y5473700D03*
G01*
X3606800Y5486400D03*
M02*
